<?xml version="1.0" ?><svg id="Outline" viewBox="0 0 512 512" xmlns="http://www.w3.org/2000/svg"><defs><style>.cls-1{fill:#262626;}</style></defs><path class="cls-1" d="M254.76,157.7a40.06,40.06,0,1,0,40.06,40.06A40.1,40.1,0,0,0,254.76,157.7Zm0,57.44a17.38,17.38,0,1,1,17.38-17.38A17.4,17.4,0,0,1,254.76,215.14Z"/><path class="cls-1" d="M365.18,157.7a40.06,40.06,0,1,0,40.06,40.06A40.1,40.1,0,0,0,365.18,157.7Zm0,57.44a17.38,17.38,0,1,1,17.38-17.38A17.4,17.4,0,0,1,365.18,215.14Z"/><path class="cls-1" d="M144.82,157.7a40.06,40.06,0,1,0,40.06,40.06A40.1,40.1,0,0,0,144.82,157.7Zm0,57.44a17.38,17.38,0,1,1,17.38-17.38A17.4,17.4,0,0,1,144.82,215.14Z"/><path class="cls-1" d="M425.49,60.64h-341A37.56,37.56,0,0,0,47,98.15V441.66a11.34,11.34,0,0,0,18.83,8.51l113.08-99.43H425.49A37.56,37.56,0,0,0,463,313.23V98.15A37.56,37.56,0,0,0,425.49,60.64Zm14.83,252.59a14.84,14.84,0,0,1-14.83,14.83H174.64a11.34,11.34,0,0,0-7.49,2.83l-97.47,85.7V98.15A14.85,14.85,0,0,1,84.51,83.32h341a14.84,14.84,0,0,1,14.83,14.83Z"/></svg>